<svg width="552" height="588" viewBox="0 0 552 588" fill="none" xmlns="http://www.w3.org/2000/svg">
<path d="M253.067 3.86667C246.933 5.60001 241.733 6.66669 241.333 6.26669C240.933 5.86667 240.667 6.13333 240.667 6.80002C240.667 7.46667 239.333 8.13333 237.733 8.13333C232.267 8.53336 166.667 26.1334 166.267 27.4667C166 28.1334 165.2 28.2667 164.533 27.8667C162.8 26.8 150 30.1334 150.8 31.4667C151.067 32 150.267 32.1334 149.067 31.8667C147.733 31.6 142.533 32.4 137.333 33.7333L128 36.1334L127.6 82.5334C127.333 126.4 127.467 128.933 129.6 128C132.4 126.933 135.2 126.267 138 126.133C139.733 126 139.733 125.867 138 124.667C136.533 123.733 137.333 123.6 140.533 124.267C143.2 124.667 144.8 124.533 144.4 123.867C144 123.2 145.733 122.533 148.4 122.4C151.067 122.267 153.467 121.467 153.733 120.667C154 120 154.667 119.6 155.333 120C157.333 121.2 169.867 117.867 169.467 116.267C169.333 115.333 169.333 115.067 169.6 115.6C170 116.267 171.333 116.667 172.667 116.667C175.867 116.667 176.8 118.267 175.067 120.667C174 122.267 173.867 122.267 174.533 120.267C174.933 119.067 174.667 118 174 118C173.2 118 172.667 160 172.667 234C172.667 325.867 173.067 350 174.4 350C175.2 350 181.467 348.4 188 346.667C194.667 344.8 206 341.867 213.333 340C220.667 338.133 232.133 335.067 238.667 333.333C245.333 331.467 253.867 329.333 257.733 328.533L264.667 326.933V163.867C264.667 74.1334 264.533 0.666687 264.4 0.800018C264.133 0.800018 259.067 2.26669 253.067 3.86667ZM263.067 164.933C262.8 253.867 262.533 300.533 262.4 268.667C261.467 115.6 261.467 3.33334 262.4 3.33334C262.933 3.33334 263.2 76.1334 263.067 164.933ZM250 8.66669C251.467 9.60001 250.8 10 247.333 10C243.867 10 243.2 9.60001 244.667 8.66669C245.733 8 246.933 7.33334 247.333 7.33334C247.733 7.33334 248.933 8 250 8.66669ZM234 11.8667C234 12.1333 232.8 12.6667 231.333 13.0667C229.867 13.4667 228.933 13.2 229.467 12.5334C230.133 11.3333 234 10.8 234 11.8667ZM250.4 12.2667C249.467 12.5334 247.867 12.5334 247.067 12.2667C246.133 11.8667 246.8 11.6 248.667 11.6C250.533 11.6 251.2 11.8667 250.4 12.2667ZM202.667 20.2667C201.2 20.6667 199.2 21.6 198.4 22.2667C197.2 23.2 196.667 23.2 196.667 22.2667C196.667 20.5334 199.067 19.4667 202.667 19.6H205.333L202.667 20.2667ZM194 21.8667C194 23.0667 187.067 24.8 186.133 23.8667C185.6 23.4667 191.067 20.9333 193.067 20.8C193.6 20.6667 194 21.2 194 21.8667ZM180.267 25.4667C179.867 25.8667 178.667 26 177.733 25.6C176.667 25.2 177.067 24.8 178.533 24.8C180 24.6667 180.8 25.0667 180.267 25.4667ZM160.667 30.6667C158.8 31.7333 156.8 32.5334 156 32.5334C155.333 32.5334 156.133 31.7333 158 30.6667C159.867 29.6 162 28.8 162.667 28.8C163.467 28.8 162.533 29.6 160.667 30.6667ZM144.267 34.9333C142.4 36.8 141.733 36.9333 140.4 35.4667C138.933 34.1334 139.067 34 140.8 34.6667C142.133 35.2 143.467 34.9333 144 34.1334C144.4 33.3333 145.2 32.6667 145.733 32.6667C146.133 32.6667 145.6 33.7333 144.267 34.9333ZM164.267 33.4667C163.867 33.8667 162.667 34 161.733 33.6C160.667 33.2 161.067 32.8 162.533 32.8C164 32.6667 164.8 33.0667 164.267 33.4667ZM133.333 38.1334C134.8 40.2667 133.467 40.6667 131.6 38.5334C130.667 37.4667 130.533 36.6667 131.2 36.6667C131.867 36.6667 132.933 37.3333 133.333 38.1334ZM130.667 43.2C131.067 43.8667 130.8 44.8 130 45.3333C129.333 45.7333 128.667 45.2 128.667 44.1334C128.667 41.7333 129.467 41.3333 130.667 43.2ZM132.267 95.6C132.133 104.667 131.867 97.3333 131.867 79.3333C131.867 61.3333 132.133 54 132.267 62.9333C132.533 72 132.533 86.6667 132.267 95.6ZM129.6 119.6C129.333 121.333 129.067 120.267 129.067 117.333C128.933 114.4 129.2 113.067 129.6 114.267C129.867 115.6 129.867 118 129.6 119.6ZM161.6 113.467C161.2 113.867 160 114 159.067 113.6C158 113.2 158.4 112.8 159.867 112.8C161.333 112.667 162.133 113.067 161.6 113.467ZM167.333 115.867C167.333 116.133 166.133 116.667 164.667 117.067C163.2 117.467 162.267 117.2 162.8 116.533C163.467 115.333 167.333 114.8 167.333 115.867ZM158.667 119.067C158.267 119.467 157.2 119.067 156.267 118.133C155.067 116.8 155.2 116.667 157.067 117.467C158.4 117.867 159.067 118.667 158.667 119.067ZM148.667 120.667C148.667 121.333 148.4 122 148.133 122C147.733 122 147.067 121.333 146.667 120.667C146.267 119.867 146.533 119.333 147.2 119.333C148 119.333 148.667 119.867 148.667 120.667ZM130.667 124.667C131.067 125.333 130.8 126 130.133 126C129.333 126 128.667 125.333 128.667 124.667C128.667 123.867 128.933 123.333 129.2 123.333C129.6 123.333 130.267 123.867 130.667 124.667ZM260.4 325.333C259.333 326.4 245.467 329.867 244.8 329.2C244.133 328.533 246.667 327.733 253.333 326.133C260 324.667 261.333 324.533 260.4 325.333ZM241.2 328.8C241.867 329.467 241.333 330.267 239.867 330.667C238.533 331.2 236 332.133 234.267 332.8C232.533 333.467 230.8 334 230.4 334C228.533 334 231.467 332.267 236.267 330.667C241.2 328.8 241.333 328.8 237.333 328.667C235.2 328.667 232.4 328 231.333 327.333C230 326.533 231.067 326.267 234.667 326.933C237.6 327.333 240.533 328.133 241.2 328.8ZM199.067 338.133C198.8 338.933 199.467 340 200.533 340.4C201.6 340.8 202 340.4 201.467 339.467C200.267 337.733 202 337.6 204.667 339.333C205.733 340 206.133 340.667 205.333 340.8C193.867 341.733 190.933 341.733 194.667 340.667C196.933 340.133 198.133 339.6 197.6 339.467C196.933 339.467 196.933 338.667 197.333 338C198.4 336.267 199.467 336.267 199.067 338.133ZM216.267 337.467C215.867 337.867 214.667 338 213.733 337.6C212.667 337.2 213.067 336.8 214.533 336.8C216 336.667 216.8 337.067 216.267 337.467Z" fill="#59046D"/>
<path d="M437.733 51.7333C431.6 53.3333 427.733 54.9333 428.267 55.7333C428.667 56.5333 428.4 56.6667 427.467 56.1333C425.333 54.8 411.2 58.1333 412.267 59.7333C412.667 60.5333 412.4 60.6667 411.6 60.1333C409.333 58.8 400.533 60.6667 401.6 62.4C402 63.2 401.733 63.3333 400.933 62.8C399.467 61.8667 392.4 63.4667 360.667 71.8667L344 76.2667V89.0667L344.133 101.867L338 103.333C334.667 104.133 325.467 106.533 317.333 108.667C309.333 110.8 299.6 113.2 295.733 114.133L288.8 115.733L287.867 124.4C287.067 132.4 288 207.067 288.933 207.6C289.2 207.6 291.6 207.333 294.4 206.8C297.6 206.267 299.067 205.333 298.533 204.4C297.867 203.333 298.4 203.2 299.867 203.733C302.533 204.8 332.133 197.333 335.2 194.933C336.8 193.6 336.933 193.733 336.133 195.067C335.2 196.533 335.6 196.667 337.733 195.467C344.267 192 344.933 192.933 343.867 206.533C343.467 213.467 343.333 219.6 343.733 220.4C344.267 221.2 354.4 219.067 369.6 215.067C383.467 211.467 396.267 208.267 398.267 207.733C400.267 207.333 401.733 206.533 401.333 206C401.067 205.6 402.933 204.133 405.6 202.8C409.333 201.067 410.667 200.933 411.867 202.133C412.667 203.067 412.8 203.333 412 202.933C411.333 202.533 408.933 203.067 406.667 204.133C402 206.4 403.2 206.133 418.933 202.533C426.4 200.667 428.267 199.733 427.733 198.133C427.2 196.4 427.333 196.4 428.4 197.867C429.2 199.067 430.933 199.333 433.2 198.8C436 198.133 436.667 197.067 436.8 193.6C436.933 191.333 437.2 188.133 437.333 186.667C437.467 185.2 438.4 177.067 439.2 168.667C440.667 153.6 441.467 146.667 442.667 136C442.933 133.067 443.6 127.067 444 122.667C444.4 118.267 445.333 109.6 446 103.333C446.667 97.0667 447.6 88.4 448 84C448.533 79.6 449.2 75.0667 449.467 73.7333C449.867 72.5333 449.467 71.2 448.667 70.6667C448 70.2667 447.467 68.2667 447.467 66.2667L447.6 62.6667L448.667 66.6667C449.6 70.4 449.733 70.4 449.867 67.3333C450 65.4667 450.4 60.5333 450.933 56.2667C451.733 47.4667 452.533 47.7333 437.733 51.7333ZM448.667 51.3333C447.2 52.2667 447.2 52.6667 448.4 52.6667C449.333 52.6667 449.733 53.3333 449.2 54.1333C448.667 55.2 448 55.0667 447.2 53.8667C446 51.8667 446.8 50 449.067 50C450 50 449.867 50.5333 448.667 51.3333ZM441.333 54.1333C442.8 56.2667 441.467 56.6667 439.6 54.5333C438.667 53.4667 438.533 52.6667 439.2 52.6667C439.867 52.6667 440.933 53.3333 441.333 54.1333ZM434.933 54.9333C433.733 55.2 433.067 56.1333 433.467 56.9333C434 57.8667 433.733 58 432.933 57.4667C430.267 55.8667 431.2 54 434.4 54.1333C436.667 54.2667 436.8 54.4 434.933 54.9333ZM419.333 58.5333C419.333 58.9333 418.8 59.6 418 60C417.333 60.4 416.667 60.1333 416.667 59.4667C416.667 58.6667 417.333 58 418 58C418.8 58 419.333 58.2667 419.333 58.5333ZM391.733 66.9333C390.8 67.2 389.2 67.2 388.4 66.9333C387.467 66.5333 388.133 66.2667 390 66.2667C391.867 66.2667 392.533 66.5333 391.733 66.9333ZM369.6 73.4667C369.2 73.8667 368 74 367.067 73.6C366 73.2 366.4 72.8 367.867 72.8C369.333 72.6667 370.133 73.0667 369.6 73.4667ZM378 75.3333C379.067 76 379.467 76.6667 378.667 76.6667C378 76.6667 376.4 76 375.333 75.3333C374.267 74.6667 374 74 374.667 74C375.467 74 376.933 74.6667 378 75.3333ZM447.333 75.0667C447.333 75.7333 446.4 77.3333 445.2 78.8C444.133 80.1333 443.333 80.6667 443.733 80C444 79.2 444.667 77.6 445.067 76.2667C446 74 447.333 73.2 447.333 75.0667ZM354 75.8667C354 76.1333 353.067 76.8 351.867 77.2C350.8 77.6 350.267 77.4667 350.667 76.6667C351.467 75.3333 354 74.8 354 75.8667ZM361.333 76.6667C357.733 78.2667 355.6 78.2667 358 76.6667C359.067 76 360.933 75.4667 362 75.4667C363.333 75.4667 363.067 75.8667 361.333 76.6667ZM366.533 77.3333C365.2 78.4 363.067 79.2 362 79.3333C360.933 79.3333 361.467 78.5333 363.333 77.4667C367.867 74.9333 369.733 74.8 366.533 77.3333ZM373.6 77.4667C373.2 77.8667 372 78 371.067 77.6C370 77.2 370.4 76.8 371.867 76.8C373.333 76.6667 374.133 77.0667 373.6 77.4667ZM446 84.6667C445.2 86.1333 444.267 87.3333 443.867 87.3333C443.6 87.3333 443.867 86.1333 444.667 84.6667C445.467 83.2 446.4 82 446.8 82C447.067 82 446.8 83.2 446 84.6667ZM444.267 98.2667C443.867 99.2 443.6 98.5333 443.6 96.6667C443.6 94.8 443.867 94.1333 444.267 94.9333C444.533 95.8667 444.533 97.4667 444.267 98.2667ZM344 104.667C344.4 105.333 344 106 343.067 106C341.867 106 341.867 106.4 343.333 107.333C344.4 108 344.8 108.667 344 108.667C343.333 108.667 341.733 108 340.667 107.333C339.2 106.4 339.2 106 340.4 106C341.333 106 341.733 105.333 341.333 104.667C340.933 103.867 341.067 103.333 341.867 103.333C342.533 103.333 343.6 103.867 344 104.667ZM328.267 108.133C327.867 108.533 326.667 108.667 325.733 108.267C324.667 107.867 325.067 107.467 326.533 107.467C328 107.333 328.8 107.733 328.267 108.133ZM340 109.733C339.6 110.133 338.533 109.733 337.6 108.8C336.4 107.467 336.533 107.333 338.4 108.133C339.733 108.533 340.4 109.333 340 109.733ZM322 110C320.933 110.667 318.8 111.2 317.333 111.2C315.2 111.067 315.2 110.933 318 110C322.667 108.533 324.4 108.533 322 110ZM442.4 122.133C441.867 122.667 441.6 120.4 442 116.933L442.667 110.667L443.067 115.867C443.333 118.667 443.067 121.467 442.4 122.133ZM305.067 116C304.667 117.2 304 117.867 303.733 117.467C303.333 117.067 303.467 116.267 304 115.467C305.2 113.333 306 113.733 305.067 116ZM293.2 117.467C294.4 117.867 295.333 118.8 295.333 119.6C295.333 120.267 294.8 120.533 294.133 120.133C293.467 119.6 292.667 119.733 292.267 120.267C292 120.933 292 120.667 292.133 119.733C292.4 118.933 291.867 117.867 290.933 117.467C288.533 116.533 290.8 116.533 293.2 117.467ZM435.733 129.2C436.133 133.2 435.867 134.933 435.2 133.867C434.133 132.133 433.467 120.933 434.533 122.133C434.8 122.4 435.333 125.6 435.733 129.2ZM438.933 148.933C438.533 150 438.133 149.6 438.133 148.133C438 146.667 438.4 145.867 438.8 146.4C439.2 146.8 439.333 148 438.933 148.933ZM433.6 154.267C433.2 155.2 432.933 154.533 432.933 152.667C432.933 150.8 433.2 150.133 433.6 150.933C433.867 151.867 433.867 153.467 433.6 154.267ZM439.333 155.333C439.333 156 438.4 156.267 437.333 155.867C436.267 155.333 435.333 154.8 435.333 154.533C435.333 154.267 436.267 154 437.333 154C438.4 154 439.333 154.533 439.333 155.333ZM437.733 162.533C437.6 164.4 436.933 165.467 436.4 165.2C435.867 164.8 435.333 165.867 435.2 167.6C435.2 169.333 434.8 169.867 434.4 168.933C433.733 167.333 436.4 159.333 437.467 159.333C437.733 159.333 437.867 160.8 437.733 162.533ZM340.667 187.333C340.667 188 340.4 188.667 340.133 188.667C339.733 188.667 339.067 188 338.667 187.333C338.267 186.533 338.533 186 339.2 186C340 186 340.667 186.533 340.667 187.333ZM346.533 187.2C347.067 187.867 346.133 188.133 344.667 187.733C341.6 186.933 341.2 186 343.867 186C344.933 186 346.133 186.533 346.533 187.2ZM342.533 190.667C341.2 191.733 339.067 192.533 338 192.667C336.933 192.667 337.467 191.867 339.333 190.8C343.867 188.267 345.733 188.133 342.533 190.667ZM433.6 195.6C433.2 196.533 432.933 195.867 432.933 194C432.933 192.133 433.2 191.467 433.6 192.267C433.867 193.2 433.867 194.8 433.6 195.6ZM290.933 203.6C290.667 205.333 290.4 204.267 290.4 201.333C290.267 198.4 290.533 197.067 290.933 198.267C291.2 199.6 291.2 202 290.933 203.6ZM316 199.333C315.6 200 314.4 200.667 313.6 200.667C312.667 200.667 312.8 200.133 314 199.333C316.533 197.733 317.067 197.733 316 199.333ZM410.4 198.933C409.467 199.2 407.867 199.2 407.067 198.933C406.133 198.533 406.8 198.267 408.667 198.267C410.533 198.267 411.2 198.533 410.4 198.933ZM309.333 200.667C308.933 201.333 307.733 202 306.933 202C306 202 306.133 201.467 307.333 200.667C309.867 199.067 310.4 199.067 309.333 200.667ZM404.267 200.133C403.867 200.533 402.667 200.667 401.733 200.267C400.667 199.867 401.067 199.467 402.533 199.467C404 199.333 404.8 199.733 404.267 200.133ZM423.333 199.867C423.333 200.133 421.6 200.667 419.467 200.933C417.2 201.2 415.733 201.067 416.133 200.4C416.8 199.333 423.333 198.8 423.333 199.867ZM294.4 204C294 205.2 293.333 205.867 293.067 205.467C292.667 205.067 292.8 204.267 293.333 203.467C294.533 201.333 295.333 201.733 294.4 204ZM388 208.8C385.867 209.333 383.6 209.467 383.067 208.933C382.533 208.4 384.4 207.867 387.067 207.733C392 207.6 392 207.6 388 208.8ZM380.133 209.867C379.333 211.067 374 212.8 374 211.867C374 211.467 375.333 210.667 377.067 210C380.933 208.533 380.933 208.533 380.133 209.867ZM358.933 212C358.933 213.067 358.4 213.6 357.733 213.2C357.067 212.8 356.933 211.867 357.333 211.2C358.533 209.467 358.933 209.733 358.933 212ZM369.333 211.333C369.733 212.133 369.2 212.267 368.133 211.867C365.733 210.933 365.333 210 367.2 210C368 210 368.933 210.533 369.333 211.333ZM363.467 214.667C361.067 215.733 358.667 216.667 358.133 216.667C356.4 216.533 364.133 212.8 366 212.8C367.067 212.8 366 213.6 363.467 214.667Z" fill="#59046D"/>
<path d="M132 156.667C112.4 162.133 106.533 164.267 94 170.8C79.7333 178.267 75.7333 181.2 78 182.667C79.2 183.467 79.4666 183.2 78.6666 182C78 180.933 78.1333 180.533 79.0666 181.2C79.8666 181.6 81.2 180.933 82 179.733C83.4666 177.467 83.4666 177.467 82.8 179.733C82.2666 181.333 82.5333 182 83.6 181.6C84.5333 181.333 85.2 180.133 85.2 178.933C85.0666 177.6 85.7333 177.2 87.0666 177.6C88.4 178.133 88.8 177.867 88.1333 176.933C87.7333 176.133 88.5333 174.8 90 174C92.5333 172.667 92.6666 172.8 91.6 174.933C90.9333 176.267 90.5333 178 90.9333 178.8C91.2 179.6 90.2666 181.2 88.8 182.533C86.8 184.4 85.6 184.533 83.4666 183.467C81.7333 182.533 80.5333 182.4 80 183.333C79.6 184 79.8666 184.667 80.8 184.667C81.7333 184.667 82.1333 185.067 81.6 185.467C81.2 185.867 79.4666 185.333 77.8666 184.267C75.3333 182.4 74.6666 182.4 71.8666 184.133C69.6 185.733 68.9333 187.2 69.3333 190.4C69.6 192.8 69.4666 193.867 69.0666 192.933C68.8 192.133 67.8666 191.733 67.2 192.133C66.4 192.533 66.5333 193.733 67.6 195.067C69.0666 197.067 69.0666 197.067 67.3333 195.733C64.9333 193.867 58.8 196.133 58.5333 199.067C58.4 200 58.2666 201.333 58.1333 202.133C58.1333 202.8 57.3333 203.067 56.4 202.533C55.3333 201.867 55.2 202.267 55.8666 204C56.5333 206 56.4 206.133 54.6666 204.667C52.4 202.8 51.8666 200 54 201.333C54.8 201.733 55.3333 201.067 55.3333 199.867C55.3333 196.8 40.8 212.533 40.6666 215.6C40.6666 216.933 39.8666 217.867 39.0666 217.6C38.1333 217.467 37.4666 218.133 37.7333 219.067C37.8666 220.133 37.4666 220.533 36.8 220.133C33.0666 217.733 30.5333 229.6 33.4666 235.467C35.0666 238.667 34.9333 238.8 31.2 238.8C29.0666 238.8 27.3333 238.267 27.3333 237.733C27.3333 237.067 26.6666 236.933 25.7333 237.467C24.8 238 24.6666 237.867 25.2 236.8C25.7333 236 26.6666 235.6 27.3333 236C27.8666 236.4 29.0666 235.733 30 234.667C31.3333 233.067 31.3333 232.667 30 232.667C28.6666 232.667 28.6666 232.267 30 230.667C30.9333 229.467 31.4666 228.267 31.0666 227.867C29.7333 226.667 13.6 254.533 13.2 258.667C13.0666 259.333 12 262.267 10.8 265.067C9.59996 267.867 8.9333 270.667 9.33329 271.333C9.86663 272.133 9.59996 272.667 8.9333 272.667C7.3333 272.667 2.66663 291.067 3.86663 292.267C4.26663 292.667 3.86663 294 2.9333 295.067C1.73329 296.533 1.19996 308.8 0.799962 342.4C0.266628 402.4 1.73329 414.133 13.0666 436.533C18 446.4 33.4666 463.867 36.2666 462.8C37.3333 462.4 37.7333 462.667 37.3333 463.333C35.6 466.133 58.1333 477.2 71.7333 480.133C83.7333 482.8 105.333 482.667 118.267 480C134.133 476.667 155.067 470.8 155.067 469.6C155.067 468.933 155.6 468 156.133 467.6C156.667 467.067 156.667 467.467 156 468.533C155.067 470 155.733 470.267 159.333 469.6C161.733 469.067 164.267 468.667 164.933 468.667C165.6 468.667 165.733 468.133 165.333 467.333C164.933 466.667 165.333 466.4 166.4 466.8C167.467 467.2 176.667 465.2 186.8 462.533C196.933 459.867 206.933 457.333 208.933 456.933C211.067 456.667 212.267 455.733 211.733 454.933C211.2 454.133 211.6 454 212.533 454.533C214.933 456 233.067 451.2 230.933 449.6C229.867 448.8 230.533 448.667 232.667 449.2C234.667 449.6 248.8 446.533 267.333 441.733C284.533 437.2 306.533 431.6 316 429.067C325.6 426.533 338.133 423.333 344 421.867C359.733 418 363.333 416.667 363.333 414.667C363.333 413.2 362.133 413.467 358.533 415.6C354.8 417.867 353.2 418.133 350.667 416.933C348.8 416 347.6 414.4 347.733 412.8C347.867 410.8 348.4 410.533 350.267 411.467C351.467 412.133 352.933 413.467 353.467 414.4C354.133 415.6 354 415.6 352.533 414.267C350.533 412.4 348.667 412.133 348.667 413.867C348.667 415.733 353.2 416.933 355.867 415.867C357.733 415.2 357.867 414.667 356.4 413.867C355.067 412.933 354.933 412.667 356.4 412.667C357.333 412.667 357.867 412.133 357.467 411.6C357.067 410.933 357.6 410.4 358.667 410.4C359.733 410.4 360.267 410.933 359.867 411.6C358.8 413.2 361.2 412.933 362.933 411.2C364 410.133 365.067 410.133 366.933 411.2C369.067 412.667 369.067 412.667 366.4 412C364 411.333 363.467 411.6 364.133 413.2C364.533 414.4 365.333 415.333 365.867 415.333C366.267 415.333 371.333 412.667 377.067 409.333C383.467 405.467 387.333 402.4 387.333 400.933C387.333 399.067 387.6 399.067 388.533 400.533C389.467 401.867 392.667 399.467 402 390.133C411.733 380.267 413.867 377.467 412.667 376C411.6 374.667 411.6 373.467 412.533 371.6C413.333 370.133 413.467 368.667 413.067 368.133C412.533 367.733 412.133 366.133 412 364.533C411.733 361.333 414 363.2 414.667 366.8C414.8 368.267 415.733 369.2 416.667 368.933C417.467 368.8 417.867 369.2 417.333 370C416.933 370.8 415.867 370.933 415.067 370.533C414 369.867 413.867 370.4 414.4 371.867C414.933 373.2 414.8 373.867 414 373.333C413.2 372.933 412.667 373.2 412.667 373.867C412.667 379.333 420.533 368.4 427.2 353.867C434.4 337.867 435.467 331.6 436.133 301.467C436.667 277.467 436.533 273.733 434.8 274.4C433.067 275.067 407.467 281.6 397.6 283.867C395.6 284.4 394.133 285.2 394.533 285.733C394.8 286.267 392.533 286.8 389.6 286.933C384.533 287.2 346.667 296.933 345.2 298.4C342.8 300.667 343.867 330.667 346.133 329.2C346.8 328.8 346.933 329.467 346.4 330.667C345.867 332.4 345.333 332.533 344.533 331.2C343.733 329.867 340.667 330.267 330.4 333.067C314.8 337.2 291.467 343.333 290.267 343.467C289.733 343.467 290.533 344.133 292 344.8C294.133 345.867 294 345.867 290.933 345.333C286.933 344.533 268.4 348.4 269.2 349.867C269.467 350.267 267.867 350.8 265.6 350.8C259.2 351.067 212.667 363.6 213.467 364.933C213.867 365.467 213.2 365.6 212.133 365.2C210.267 364.533 188.533 369.6 152 379.333C121.867 387.467 117.6 388.133 110.267 386.133C103.333 384.267 96 377.2 94.6666 371.067C94.1333 368.933 93.3333 367.6 92.9333 367.867C92.4 368.133 92.2666 348.8 92.6666 324.933L93.3333 281.333L96.9333 274.533C98.8 270.933 101.467 267.067 102.533 266.133C103.733 265.067 104.4 263.067 104.133 261.2C103.733 259.467 104.4 257.467 105.733 256.4C107.333 255.067 107.6 255.067 106.8 256.267C106.267 257.333 106.533 258 107.467 258C108.4 258 108 258.933 106.533 260.133C104 262.133 104.133 262.133 106.8 260.8C108.267 260.133 110.4 258.4 111.467 257.2C112.667 255.6 112.667 255.2 111.733 255.867C110.667 256.4 110 256.133 110 255.333C110 254.533 111.067 254 112.4 254.267C113.6 254.667 116.8 253.867 119.333 252.667C121.867 251.333 129.6 249.067 136.4 247.333L148.667 244.4V198.533C148.667 162.667 148.267 152.667 147.067 152.8C146.133 152.8 139.333 154.533 132 156.667ZM147.333 155.333C147.333 156 147.067 156.667 146.8 156.667C146.4 156.667 145.733 156 145.333 155.333C144.933 154.533 145.2 154 145.867 154C146.667 154 147.333 154.533 147.333 155.333ZM130.933 160C130.933 161.333 130.133 161.867 129.067 161.333C128 160.933 126.667 160.667 126.267 160.533C125.733 160.533 126.533 160 128 159.333C129.467 158.667 130.667 158.133 130.8 158.133C130.8 158 130.933 158.933 130.933 160ZM136.8 158.933C134.667 159.333 134.133 159.867 135.2 160.667C136.533 161.333 136.4 161.867 134.933 162.4C133.2 163.067 132.8 161.733 133.867 158.267C134 158.133 135.333 158.133 137.067 158.133C139.867 158.4 139.867 158.4 136.8 158.933ZM144.267 161.467C143.867 161.867 142.667 162 141.733 161.6C140.667 161.2 141.067 160.8 142.533 160.8C144 160.667 144.8 161.067 144.267 161.467ZM147.067 200.933L146.667 240L146 202C145.333 165.6 145.467 162 146.8 162C147.067 162 147.2 179.6 147.067 200.933ZM111.2 167.2C112.667 168.133 112.4 168.533 110.133 169.333C108.4 169.867 106.8 169.867 106.4 169.467C105.867 169.067 106.667 168.667 108.133 168.533C110.533 168.533 110.533 168.4 108 167.333C106.267 166.533 106 166.133 107.333 166.133C108.4 166.133 110.133 166.533 111.2 167.2ZM103.067 169.2C101.733 170.133 101.067 171.2 101.467 171.6C101.867 172.133 101.467 172.8 100.533 173.467C99.4666 174 99.2 173.867 99.8666 172.933C100.933 171.2 99.2 170.8 97.2 172.267C96.5333 172.933 97.4666 172 99.3333 170.4C101.2 168.667 103.333 167.333 104 167.333C104.8 167.467 104.267 168.267 103.067 169.2ZM112 174C112.4 174.8 111.867 174.933 110.8 174.533C108.4 173.6 108 172.667 109.867 172.667C110.667 172.667 111.6 173.2 112 174ZM47.4666 211.733C45.6 213.6 45.4666 215.733 47.3333 214.667C48.1333 214.133 48.2666 214.8 47.7333 216.133C47.2 217.733 46.6666 218 46.2666 216.933C45.8666 215.6 45.3333 215.6 43.6 216.933C41.6 218.533 41.4666 218.4 43.0666 216.4C44.1333 215.2 44.5333 213.467 44 212.667C43.4666 211.867 43.8666 211.467 44.8 211.6C45.7333 211.867 46.6666 211.2 46.8 210.267C47.2 207.067 47.6 206.667 48.2666 208.4C48.6666 209.467 48.2666 210.933 47.4666 211.733ZM36.5333 224.133C35.6 225.2 35.6 226 36.6666 226.667C37.3333 227.067 38 228.267 37.8666 229.067C37.8666 230.133 37.4666 230 37.0666 228.8C36.5333 227.467 36.1333 227.333 35.3333 228.667C34.6666 229.6 34.4 228.667 34.4 226.4C34.5333 224.267 35.3333 222.4 36.2666 222.4C37.4666 222.4 37.6 222.933 36.5333 224.133ZM132.267 240.133C131.867 240.533 130.667 240.667 129.733 240.267C128.667 239.867 129.067 239.467 130.533 239.467C132 239.333 132.8 239.733 132.267 240.133ZM25.2 244.933C24 246.8 22.1333 244.667 22.9333 242.533C23.4666 240.933 24 240.8 24.8 242.133C25.3333 243.067 25.4666 244.4 25.2 244.933ZM147.333 241.333C147.333 241.6 146.533 242.4 145.6 243.2C144.267 244.267 143.733 244.133 143.733 242.933C143.733 241.867 144.533 241.067 145.6 241.067C146.533 241.067 147.333 241.2 147.333 241.333ZM136.133 244C137.467 245.067 138 246 137.333 246C136.533 246 135.333 245.467 134.667 244.8C133.867 244.133 131.867 243.333 130 242.933L126.667 242.4L130.133 242.133C132 242.133 134.667 242.933 136.133 244ZM130.933 245.467C130.533 245.867 129.333 246 128.4 245.6C127.333 245.2 127.733 244.8 129.2 244.8C130.667 244.667 131.467 245.067 130.933 245.467ZM25.8666 248.8C24.9333 249.333 23.6 249.467 23.0666 249.2C22.5333 248.8 22 249.467 22 250.667C22 251.867 21.4666 252.533 20.6666 252C18.4 250.667 20.8 247.6 24.2666 247.6C26.5333 247.6 27.0666 248 25.8666 248.8ZM113.333 252.4C112.933 252.8 111.867 252.4 110.933 251.467C109.733 250.133 109.867 250 111.733 250.8C113.067 251.2 113.733 252 113.333 252.4ZM119.333 251.333C118.267 252 116.8 252.667 116 252.667C115.333 252.667 115.6 252 116.667 251.333C117.733 250.667 119.333 250 120 250C120.8 250 120.4 250.667 119.333 251.333ZM106 253.2C106 253.467 105.067 254.133 103.867 254.533C102.8 254.933 102.267 254.8 102.667 254C103.467 252.667 106 252.133 106 253.2ZM17.2 257.333C16.6666 258.4 16.1333 259.333 15.8666 259.333C15.6 259.333 15.3333 258.4 15.3333 257.333C15.3333 256.267 15.8666 255.333 16.6666 255.333C17.3333 255.333 17.6 256.267 17.2 257.333ZM101.333 263.6C100.933 265.067 99.4666 267.733 98 269.333C96.5333 270.933 95.3333 273.067 95.3333 274.267C95.3333 275.467 94.2666 277.2 93.0666 278.133C90.9333 279.733 90.8 279.733 92.1333 278C94.2666 275.067 95.3333 270.133 93.8666 269.2C93.2 268.8 92.6666 267.867 92.6666 266.933C92.6666 266.133 93.4666 266.667 94.5333 268C96.2666 270.4 96.4 270.4 98.1333 267.2C99.0666 265.467 100 263.6 100.133 262.933C100.533 260.933 100.667 260.667 101.2 260.667C101.6 260.667 101.6 262 101.333 263.6ZM97.2 263.067C97.6 263.733 97.0666 264.267 96 264.267C94.9333 264.267 94.4 263.733 94.8 263.067C95.2 262.533 95.7333 262 96 262C96.2666 262 96.8 262.533 97.2 263.067ZM13.4666 266.667C12.2666 267.867 11.3333 268.4 11.3333 267.733C11.3333 266.133 14.2666 263.2 15.0666 264C15.3333 264.267 14.6666 265.467 13.4666 266.667ZM9.7333 280.8C9.33329 281.867 8.79996 281.2 8.26663 279.467C7.7333 277.2 7.86663 276.667 8.9333 277.733C9.59996 278.4 9.99996 279.867 9.7333 280.8ZM16.2666 280.933C15.8666 281.867 15.6 281.2 15.6 279.333C15.6 277.467 15.8666 276.8 16.2666 277.6C16.5333 278.533 16.5333 280.133 16.2666 280.933ZM430 279.333C432.4 280.933 430.267 280.933 426.667 279.333C424.933 278.533 424.667 278.133 426 278.133C427.067 278.133 428.933 278.667 430 279.333ZM13.3333 280.667C13.7333 281.333 13.4666 282 12.8 282C12 282 11.3333 281.333 11.3333 280.667C11.3333 279.867 11.6 279.333 11.8666 279.333C12.2666 279.333 12.9333 279.867 13.3333 280.667ZM403.867 287.2C404.267 287.867 403.733 289.067 402.667 290C401.333 291.2 400.667 291.2 400.667 290.133C400.667 289.333 401.467 288.667 402.4 288.667C403.467 288.667 403.333 288.133 402 287.333C400.8 286.533 400.667 286 401.6 286C402.4 286 403.467 286.533 403.867 287.2ZM409.333 287.333C409.733 288 409.467 288.667 408.8 288.667C408 288.667 407.333 288 407.333 287.333C407.333 286.533 407.6 286 407.867 286C408.267 286 408.933 286.533 409.333 287.333ZM388.667 290.133C388.667 290.8 389.467 291.067 390.4 290.533C391.2 290 391.6 290.133 390.933 290.667C389.2 292.667 384.8 292.4 385.6 290.4C386.4 288.267 388.667 288.133 388.667 290.133ZM383.333 290.533C383.333 290.8 382.4 291.467 381.2 291.867C380.133 292.267 379.6 292.133 380 291.333C380.8 290 383.333 289.467 383.333 290.533ZM408.667 290.533C408.667 290.8 407.733 291.467 406.533 291.867C405.467 292.267 404.933 292.133 405.333 291.333C406.133 290 408.667 289.467 408.667 290.533ZM356.533 298.533C355.067 299.733 348.133 300.8 349.333 299.6C350.133 298.8 351.867 298 353.333 297.733C356 297.2 357.6 297.6 356.533 298.533ZM366 298C366 298.667 365.733 299.333 365.467 299.333C365.067 299.333 364.4 298.667 364 298C363.6 297.2 363.867 296.667 364.533 296.667C365.333 296.667 366 297.2 366 298ZM362 300.667C362 301.333 361.733 302 361.467 302C361.067 302 360.4 301.333 360 300.667C359.6 299.867 359.867 299.333 360.533 299.333C361.333 299.333 362 299.867 362 300.667ZM4.26663 303.6C3.86663 304.667 3.46663 304.267 3.46663 302.8C3.3333 301.333 3.7333 300.533 4.1333 301.067C4.5333 301.467 4.66663 302.667 4.26663 303.6ZM433.6 327.6C433.2 328.667 432.8 328.267 432.8 326.8C432.667 325.333 433.067 324.533 433.467 325.067C433.867 325.467 434 326.667 433.6 327.6ZM424.267 338.267C423.867 339.333 423.467 338.933 423.467 337.467C423.333 336 423.733 335.2 424.133 335.733C424.533 336.133 424.667 337.333 424.267 338.267ZM325.067 337.6C324.133 337.867 322.533 337.867 321.733 337.6C320.8 337.2 321.467 336.933 323.333 336.933C325.2 336.933 325.867 337.2 325.067 337.6ZM319.333 340.133C319.333 340.4 318.4 340.667 317.333 340.667C316.267 340.667 315.333 340.133 315.333 339.333C315.333 338.667 316.267 338.4 317.333 338.8C318.4 339.333 319.333 339.867 319.333 340.133ZM430 340.667C430 341.333 429.333 342 428.533 342C427.867 342 427.6 341.333 428 340.667C428.4 339.867 429.067 339.333 429.467 339.333C429.733 339.333 430 339.867 430 340.667ZM310 343.333C308.933 344 307.067 344.533 306 344.533C304.667 344.533 304.933 344.133 306.667 343.333C310.267 341.733 312.4 341.733 310 343.333ZM320.667 343.333C323.067 344.933 320.933 344.933 317.333 343.333C315.6 342.533 315.333 342.133 316.667 342.133C317.733 342.133 319.6 342.667 320.667 343.333ZM426.533 349.467C426.933 350.533 426.8 351.067 426 350.667C425.2 350.267 424.667 349.333 424.667 348.533C424.667 346.667 425.6 347.067 426.533 349.467ZM276 351.067L272 351.733L275.333 352.667C278.667 353.733 278.667 353.733 275.6 353.867C273.6 354 272.8 354.533 273.467 355.6C274 356.4 273.867 356.667 272.933 356.267C271.867 355.467 271.733 353.2 272.533 350.267C272.667 350.133 274.267 350.133 276.4 350.133L280 350.4L276 351.067ZM268.133 354.267C266.933 354.933 265.067 354.933 263.867 354.267C262.267 353.467 262.933 353.067 266 353.067C269.067 353.067 269.733 353.467 268.133 354.267ZM424.667 356.667C424.667 357.333 424.4 358 424.133 358C423.733 358 423.067 357.333 422.667 356.667C422.267 355.867 422.533 355.333 423.2 355.333C424 355.333 424.667 355.867 424.667 356.667ZM422.8 359.6C423.333 360.533 423.333 360.933 422.667 360.4C422.133 359.867 420.667 360.133 419.467 361.067C417.6 362.533 417.6 362.4 419.2 360.267C421.333 357.6 421.6 357.467 422.8 359.6ZM420.667 362.933C422.267 361.6 422.267 361.733 420.8 363.6C418.533 366.667 417.733 366.667 415.467 362.933C413.733 360.133 413.733 360.133 416.267 362.267C418.267 364.133 419.2 364.267 420.667 362.933ZM220.933 364.267C220.133 364.533 219.6 365.333 219.867 365.867C220.267 366.4 219.2 366.933 217.733 366.933C215.067 367.2 215.067 367.067 217.467 365.333C218.933 364.267 220.667 363.467 221.333 363.467C222.133 363.467 221.867 363.867 220.933 364.267ZM228.667 364C228.667 364.267 227.333 365.2 225.733 366C222.8 367.467 222.8 367.333 225.2 365.467C228 363.2 228.667 362.933 228.667 364ZM196.667 371.333C197.733 372 198.133 372.667 197.333 372.667C196.667 372.667 195.067 372 194 371.333C192.933 370.667 192.667 370 193.333 370C194.133 370 195.6 370.667 196.667 371.333ZM95.0666 377.6C94.8 378.933 95.4666 379.867 96.4 379.6C97.2 379.467 97.8666 380 97.7333 380.933C97.4666 381.867 98 382.533 98.6666 382.667C100.667 382.667 106.8 387.333 104.933 387.333C104.133 387.333 102.933 387.333 102.4 387.333C101.733 387.333 101.333 386.8 101.333 386.133C101.333 385.467 100.933 384.4 100.4 383.867C99.7333 383.333 99.3333 383.6 99.3333 384.533C99.3333 385.6 98.6666 385.467 97.2 384.133C96.1333 382.933 94.6666 382.267 94 382.667C93.3333 383.067 92.4 382.667 91.8666 381.867C91.2 380.8 91.4666 380.667 92.5333 381.2C93.6 381.867 94.1333 381.6 93.8666 380.533C93.6 377.733 93.8666 375.333 94.6666 375.333C95.0666 375.333 95.3333 376.4 95.0666 377.6ZM190.933 376.133C190.533 376.533 189.333 376.667 188.4 376.267C187.333 375.867 187.733 375.467 189.2 375.467C190.667 375.333 191.467 375.733 190.933 376.133ZM164 379.333C163.6 380 162.667 380.667 161.867 380.667C161.2 380.667 160.667 380 160.667 379.333C160.667 378.533 161.6 378 162.8 378C163.867 378 164.4 378.533 164 379.333ZM403.467 381.067C402.533 382 402.533 383.333 403.467 385.2C404.8 387.867 404.8 387.867 402.8 385.467C401.333 383.733 401.2 382.4 402 381.333C402.667 380.4 402.8 379.2 402.267 378.667C401.733 378 402.133 378 403.067 378.667C404.4 379.333 404.533 380 403.467 381.067ZM406.933 382.667C406.933 383.733 406.4 384.667 405.733 384.667C404.4 384.667 404.267 382.8 405.6 381.6C406.8 380.267 406.933 380.4 406.933 382.667ZM145.733 386.667C145.333 387.067 144.533 386.4 144.133 385.067C143.333 383.2 143.467 383.067 144.8 384.267C145.733 385.2 146.133 386.267 145.733 386.667ZM134.667 386C134.267 386.667 133.067 387.333 132.267 387.333C131.333 387.333 131.467 386.8 132.667 386C135.2 384.4 135.733 384.4 134.667 386ZM400.8 389.733C400.133 391.067 398.533 393.067 397.333 394C395.6 395.467 395.467 395.333 396.133 393.333C396.8 391.6 396.667 391.2 395.6 391.867C394.533 392.533 394.267 392.133 394.933 390.667C395.6 388.933 396 388.8 396.933 390.267C397.867 391.6 398.267 391.6 399.467 389.6C401.2 386.533 402.4 386.667 400.8 389.733ZM392.267 392.533C392.267 394 391.6 394.933 391.067 394.533C390.533 394.133 390.4 393.067 390.933 392C391.867 389.2 392.533 389.467 392.267 392.533ZM385.2 401.467C385.867 403.333 385.733 403.467 384 402C381.733 400.133 381.467 399.333 383.2 399.333C383.867 399.333 384.8 400.267 385.2 401.467ZM4.26663 403.6C3.86663 404.667 3.46663 404.267 3.46663 402.8C3.3333 401.333 3.7333 400.533 4.1333 401.067C4.5333 401.467 4.66663 402.667 4.26663 403.6ZM382.533 404.8C382.133 405.467 381.2 405.733 380.533 405.333C379.867 404.8 379.333 404.933 379.333 405.6C379.333 406.133 377.733 407.333 375.867 408.267C373.067 409.6 372.667 409.6 374 408C375.067 406.667 375.067 406 373.733 405.2C372.667 404.533 373.333 403.6 376 402.533C380.133 400.933 384.133 402.267 382.533 404.8ZM5.59996 410.267C5.19996 411.2 4.9333 410.533 4.9333 408.667C4.9333 406.8 5.19996 406.133 5.59996 406.933C5.86663 407.867 5.86663 409.467 5.59996 410.267ZM6.9333 415.6C6.5333 416.667 6.1333 416.267 6.1333 414.8C5.99996 413.333 6.39996 412.533 6.79996 413.067C7.19996 413.467 7.3333 414.667 6.9333 415.6ZM14.5333 420.133C14.9333 421.2 14.8 421.733 14 421.333C13.2 420.933 12.6666 420 12.6666 419.2C12.6666 417.333 13.6 417.733 14.5333 420.133ZM316 423.467C315.467 424.133 314.133 424.533 312.933 424.533C310.933 424.4 310.933 424.267 313.067 423.733C314.267 423.467 314.933 422.533 314.533 421.733C314 420.8 314.267 420.667 315.2 421.2C316 421.733 316.4 422.8 316 423.467ZM330.933 422.8C330.533 423.2 329.333 423.333 328.4 422.933C327.333 422.533 327.733 422.133 329.2 422.133C330.667 422 331.467 422.4 330.933 422.8ZM16.6666 429.2C16.6666 429.867 15.7333 429.333 14.6666 427.867C13.6 426.533 12.8 424.667 12.8 424C12.8 423.2 13.6 423.867 14.6666 425.2C15.7333 426.667 16.6666 428.4 16.6666 429.2ZM310.667 426.4C313.2 426.933 313.2 427.067 310.533 427.2C308.933 427.2 306.8 426.267 305.867 424.933C304.267 422.933 304.267 422.8 306 424.133C307.067 425.067 309.2 426 310.667 426.4ZM322 424.667C323.067 425.333 323.467 426 322.667 426C322 426 320.4 425.333 319.333 424.667C318.267 424 318 423.333 318.667 423.333C319.467 423.333 320.933 424 322 424.667ZM13.3333 431.333C14.5333 435.6 13.6 434.667 10.6666 428.667C8.9333 425.067 8.79996 424.4 10.4 426C11.4666 427.067 12.8 429.467 13.3333 431.333ZM277.333 432.667C276.933 433.333 277.733 434 279.333 434C280.933 434 281.867 433.467 281.467 432.933C281.067 432.267 281.6 431.733 282.667 431.733C283.733 431.733 284.267 432.267 283.867 432.8C283.6 433.333 284.4 434.133 285.6 434.4C286.933 434.667 286.667 434.8 285.067 434.667C283.467 434.533 281.867 434.933 281.6 435.733C281.333 436.533 280.133 436.4 278.267 435.467C275.733 434.133 275.2 431.333 277.467 431.333C277.867 431.333 277.733 431.867 277.333 432.667ZM16.6666 436.667C16.6666 437.333 16.4 438 16.1333 438C15.7333 438 15.0666 437.333 14.6666 436.667C14.2666 435.867 14.5333 435.333 15.2 435.333C16 435.333 16.6666 435.867 16.6666 436.667ZM276.667 436.667C279.067 438.267 276.933 438.267 273.333 436.667C271.6 435.867 271.333 435.467 272.667 435.467C273.733 435.467 275.6 436 276.667 436.667ZM269.6 437.467C269.2 437.867 268 438 267.067 437.6C266 437.2 266.4 436.8 267.867 436.8C269.333 436.667 270.133 437.067 269.6 437.467ZM25.8666 449.6C24.9333 450.667 25.3333 451.6 27.3333 452.667C28.8 453.467 30.5333 453.867 31.2 453.467C31.7333 453.067 33.4666 453.6 34.8 454.667C37.2 456.667 37.2 456.667 34.6666 455.867C32.4 455.2 32.5333 455.467 35.3333 457.867C37.8666 460 38 460.533 36.1333 459.733C34.1333 459.067 33.8666 459.333 34.6666 460.8C35.2 461.867 32.9333 460 29.6 456.667C25.3333 452.533 23.8666 450.267 24.8 449.2C25.7333 448.133 25.6 447.333 24.6666 446.667C24 446.267 23.3333 446.667 23.3333 447.6C23.3333 448.667 22.6666 448.4 21.8666 446.933C19.6 443.067 22 441.2 24.8 444.8C26.4 446.933 26.6666 448.4 25.8666 449.6ZM252.133 443.6C252.667 444.533 252.667 444.933 252 444.4C251.467 443.867 249.733 444 248.133 444.8C245.467 446.133 245.467 446.133 247.867 444.133C251.067 441.6 250.933 441.6 252.133 443.6ZM257.6 442.8C257.2 443.2 256 443.333 255.067 442.933C254 442.533 254.4 442.133 255.867 442.133C257.333 442 258.133 442.4 257.6 442.8ZM241.733 444.4C243.733 442.8 243.733 442.933 242.267 444.933C240.4 447.333 236 446.667 237.6 444.267C238.267 443.2 238.667 443.333 239.067 444.4C239.467 445.733 240 445.733 241.733 444.4ZM227.333 447.467C229.067 448.4 229.067 448.533 227.333 448.533C226.267 448.533 223.867 447.733 222 446.533L218.667 444.533L222 445.467C223.867 445.867 226.267 446.8 227.333 447.467ZM236 447.333C236.4 448 236.267 448.667 235.467 448.667C234.8 448.667 233.733 448 233.333 447.333C232.933 446.533 233.067 446 233.867 446C234.533 446 235.6 446.533 236 447.333ZM225.6 450.8C225.2 451.2 224 451.333 223.067 450.933C222 450.533 222.4 450.133 223.867 450.133C225.333 450 226.133 450.4 225.6 450.8ZM194.133 453.6C192.8 454.133 193.067 454.8 195.333 456C197.867 457.333 198 457.733 196.133 458.4C194.8 458.933 194.133 458.8 194.533 458.133C195.333 456.933 192.4 455.333 189.6 455.333C188.4 455.333 188.4 455.6 189.6 456.4C190.533 456.933 190.8 458.133 190.267 458.933C189.6 459.867 188.8 459.333 187.733 457.2C186.933 455.467 186.667 454.267 187.067 454.533C187.6 454.8 189.2 454.533 190.667 453.867C192.133 453.333 194 452.8 194.667 452.8C195.467 452.933 195.2 453.2 194.133 453.6ZM203.867 455.2C204.4 455.867 203.467 456.133 202 455.733C198.933 454.933 198.533 454 201.2 454C202.267 454 203.467 454.533 203.867 455.2ZM46.6666 465.467C45.6 466.267 45.0666 467.333 45.6 467.867C46.1333 468.4 45.4666 468.4 44 467.867C42.2666 467.2 42 466.667 43.2 466.267C44.6666 465.733 44.6666 465.467 43.3333 464.667C42.2666 464 42.9333 463.733 45.2 463.733C48.1333 464 48.4 464.267 46.6666 465.467ZM56 464.667C56.4 465.467 55.8666 465.6 54.8 465.2C52.4 464.267 52 463.333 53.8666 463.333C54.6666 463.333 55.6 463.867 56 464.667ZM159.867 465.867C160.4 466.533 159.467 466.8 158 466.4C154.933 465.6 154.533 464.667 157.2 464.667C158.267 464.667 159.467 465.2 159.867 465.867ZM58.2666 472C58.6666 473.733 58.4 474.933 57.8666 474.533C56.6666 473.867 56.1333 468.667 57.2 468.667C57.4666 468.667 58 470.133 58.2666 472ZM148.667 470C148.667 470.667 147.733 470.933 146.667 470.533C145.6 470 144.667 469.467 144.667 469.2C144.667 468.933 145.6 468.667 146.667 468.667C147.733 468.667 148.667 469.2 148.667 470ZM66.8 475.6C65.6 476.267 63.7333 476.267 62.5333 475.6C60.9333 474.8 61.6 474.4 64.6666 474.4C67.7333 474.4 68.4 474.8 66.8 475.6ZM72.2666 477.467C71.8666 477.867 70.6666 478 69.7333 477.6C68.6666 477.2 69.0666 476.8 70.5333 476.8C72 476.667 72.8 477.067 72.2666 477.467ZM85.7333 477.6C84.4 477.867 82.2666 477.867 81.0666 477.6C79.7333 477.2 80.8 476.933 83.3333 476.933C85.8666 476.933 86.9333 477.2 85.7333 477.6ZM95.7333 477.6C94.8 477.867 93.2 477.867 92.4 477.6C91.4666 477.2 92.1333 476.933 94 476.933C95.8666 476.933 96.5333 477.2 95.7333 477.6ZM123.733 477.6C122.8 477.867 121.2 477.867 120.4 477.6C119.467 477.2 120.133 476.933 122 476.933C123.867 476.933 124.533 477.2 123.733 477.6ZM77.6 478.8C77.2 479.2 76 479.333 75.0666 478.933C74 478.533 74.4 478.133 75.8666 478.133C77.3333 478 78.1333 478.4 77.6 478.8ZM117.867 478.533C117.6 478.8 114.4 479.333 110.667 479.733C106.4 480.267 104.933 480.133 106.667 479.333C109.2 478.267 119.067 477.467 117.867 478.533ZM97.0666 480.267C93.8666 480.533 88.8 480.533 85.7333 480.267C82.5333 480 85.0666 479.733 91.3333 479.733C97.6 479.733 100.133 480 97.0666 480.267Z" fill="#59046D"/>
<path d="M377.733 402.933C376.4 403.2 375.333 404.133 375.333 404.8C375.333 406.4 377.6 406.4 378.667 404.667C379.2 403.867 380.133 403.733 380.933 404.133C381.867 404.667 382 404.4 381.467 403.6C380.933 402.667 380.4 402.133 380.267 402.133C380.133 402.267 378.933 402.533 377.733 402.933Z" fill="#59046D"/>
<path d="M86.6666 180.667C85.3332 182.133 84.9332 183.333 85.5999 183.333C87.3332 183.333 90.6666 179.467 89.7332 178.667C89.3332 178.267 87.9999 179.2 86.6666 180.667Z" fill="#59046D"/>
<path d="M62.6665 191.467C60.5332 193.6 58.2665 195.333 57.7332 195.333C57.0665 195.333 56.6665 196 56.6665 196.933C56.6665 197.867 57.4665 197.733 59.0665 196.4C60.2665 195.333 62.3998 194 63.5998 193.6C65.8665 192.8 69.5998 187.333 67.7332 187.467C67.1998 187.467 64.9332 189.2 62.6665 191.467Z" fill="#59046D"/>
<path d="M30 236.667C30 237.333 30.6667 238 31.3333 238C32.1333 238 32.6667 237.333 32.6667 236.667C32.6667 235.867 32.1333 235.333 31.3333 235.333C30.6667 235.333 30 235.867 30 236.667Z" fill="#59046D"/>
<path d="M544.4 361.333C544 361.867 529.6 365.6 512.534 370C495.334 374.267 479.867 378.4 478 379.067C476.134 379.733 474.267 380.4 473.6 380.4C468.667 380.933 463.333 382.533 463.333 383.467C463.333 384.133 462.534 384.533 461.734 384.4C460.4 384.133 459.867 390.533 459.333 412C458.934 427.333 458.267 439.867 457.734 439.733C457.2 439.6 453.6 440.4 449.734 441.467C446 442.667 441.867 443.733 440.8 444C428.4 446.667 410.267 452 410.8 452.933C411.2 453.467 410.667 453.6 409.6 453.2C407.067 452.267 376.133 460.133 375.6 461.867C375.334 462.533 374.267 462.8 373.334 462.4C372.267 462 368.267 462.667 364.4 463.733C358.267 465.6 350 467.6 349.067 467.467C348.8 467.467 346.8 468.133 344.4 468.8C342 469.6 339.067 470.4 337.867 470.667C336.8 470.933 328.667 472.933 320 475.2C311.333 477.467 303.867 479.333 303.467 479.467C303.067 479.6 304.133 480.133 306 480.667C309.067 481.6 309.067 481.733 306.4 481.867C304.8 482 303.2 481.467 302.8 480.933C302 479.467 266 488.667 266 490.267C266 490.933 267.067 491.2 268.534 490.667C271.334 489.867 275.067 493.2 272.667 494.667C271.867 495.2 271.467 494.8 271.6 493.867C271.867 493.067 271.2 492 270.267 491.733C269.2 491.333 268.934 491.867 269.6 493.6C270.534 495.867 270.4 495.867 268.133 493.6C265.2 490.667 263.2 490.667 264.133 493.6C264.8 495.6 264.667 495.733 263.467 494C262.667 492.8 262.534 491.6 263.334 490.8C264.934 489.2 265.2 466 263.733 466C260.267 466.133 251.467 469.6 252.267 470.667C252.8 471.2 252.534 471.333 251.6 470.8C249.733 469.733 229.867 474 230.667 475.2C230.8 475.6 229.467 476 227.6 476.133C222.533 476.267 204.533 481.333 205.467 482.4C205.867 482.8 205.2 482.933 203.733 482.667C202.4 482.267 195.067 483.733 187.333 485.733L173.333 489.333V515.333C173.333 541.467 175.2 555.067 178.4 553.067C179.2 552.667 179.333 552.933 178.8 553.733C177.467 555.867 181.733 563.6 183.6 562.533C184.533 561.867 184.667 562.133 184.133 563.2C182.8 565.2 190.933 574 198.533 578.933C206.267 584 217.333 587.467 219.333 585.6C220.667 584.4 220.8 584.4 220.133 585.733C219.467 586.933 220.933 587.333 225.6 587.467C237.867 587.867 244.133 587.2 256 584C262.667 582.267 278.8 578 292 574.667C305.2 571.333 318.267 567.867 321.067 567.2C324.4 566.267 325.734 565.333 325.067 564.267C324.4 563.067 324.667 563.067 326.133 564.133C327.467 565.2 334.4 563.867 354 558.667C368.4 554.8 379.067 551.333 378 550.933C376.934 550.4 377.334 550.4 378.934 550.8C380.534 551.2 385.334 550.533 389.6 549.333C400 546.4 401.067 546.267 403.2 546.133C404.267 546 404.8 545.6 404.267 545.2C403.067 544 406.134 541.333 409.734 540.4C413.867 539.333 413.467 540.4 409.067 542.133C406.934 542.933 406 543.867 406.8 544.133C408.534 544.8 454 532.933 456.134 531.2C456.934 530.533 457.867 530.4 458.267 530.8C458.667 531.2 473.334 527.733 490.8 523.333C532.667 512.533 534.667 512 543.734 509.333L551.334 507.2V435.2C551.334 377.867 550.934 363.333 549.734 364.133C548.534 364.8 548.534 364.4 549.867 362.933C551.467 360.933 551.334 360.667 548.4 360.667C546.534 360.667 544.8 360.933 544.4 361.333ZM545.6 364.133C545.2 364.533 544 364.667 543.067 364.267C542 363.867 542.4 363.467 543.867 363.467C545.334 363.333 546.134 363.733 545.6 364.133ZM523.334 370.4C521.467 371.467 519.734 372 519.334 371.733C518.4 370.933 522.4 368.667 524.667 368.667C525.734 368.667 525.2 369.467 523.334 370.4ZM527.867 372C527.334 373.067 526 374 524.8 374C522.934 373.867 523.067 373.6 525.2 372C528.534 369.467 528.8 369.467 527.867 372ZM508.267 374.533C508.267 375.733 506.4 376.667 503.2 376.933C499.467 377.2 498.534 376.933 499.467 375.867C500.134 374.933 501.867 374.533 503.2 374.933C504.534 375.333 506.134 374.933 506.534 374.133C507.734 372.133 508.267 372.267 508.267 374.533ZM522.934 375.733C523.467 376.667 522.934 376.8 521.467 376.267C520.134 375.733 518.534 375.333 517.867 375.333C517.2 375.333 516.667 374.8 516.667 374.133C516.667 372.533 521.734 373.867 522.934 375.733ZM482.934 380.133C482.534 380.533 481.334 380.667 480.4 380.267C479.334 379.867 479.734 379.467 481.2 379.467C482.667 379.333 483.467 379.733 482.934 380.133ZM476.267 383.6C476.534 386.133 475.334 386.4 470 384.667C466.8 383.6 466.8 383.6 469.734 383.467C471.334 383.333 472.667 382.8 472.667 382.267C472.667 380 476.134 381.2 476.267 383.6ZM481.6 382.8C481.2 383.2 480 383.333 479.067 382.933C478 382.533 478.4 382.133 479.867 382.133C481.334 382 482.134 382.4 481.6 382.8ZM465.2 387.2C464 388.4 460.667 388.4 460.667 387.333C460.667 386.667 461.867 386.267 463.333 386.4C464.667 386.533 465.6 386.8 465.2 387.2ZM463.333 440.667C462.267 441.333 460.8 442 460 442C459.333 442 459.6 441.333 460.667 440.667C461.734 440 463.333 439.333 464 439.333C464.8 439.333 464.4 440 463.333 440.667ZM440.667 447.333C442.4 448.4 442.4 448.667 440.4 448.667C439.2 448.667 437.734 448 437.333 447.333C436.267 445.6 438 445.6 440.667 447.333ZM452 447.867C453.6 449.467 453.6 449.867 451.734 450.667C450.4 451.067 449.867 451.067 450.4 450.533C450.934 450 450.667 448.8 449.867 447.733C447.867 445.467 449.734 445.467 452 447.867ZM436.667 449.333C436.667 449.467 435.067 449.6 433.2 449.6C430.934 449.6 430.267 449.333 431.467 448.667C432.8 447.733 436.667 448.267 436.667 449.333ZM447.333 448.667C447.333 449.333 446.267 450 445.067 450.133C443.467 450.267 443.734 450.667 446 451.333C450 452.667 446.667 452.933 442.134 451.733L439.067 450.933L442.8 449.2C444.934 448.267 446.8 447.467 447.067 447.467C447.2 447.333 447.333 447.867 447.333 448.667ZM425.6 450.8C425.2 451.2 424 451.333 423.067 450.933C422 450.533 422.4 450.133 423.867 450.133C425.334 450 426.134 450.4 425.6 450.8ZM399.334 458C400.4 458.667 400.8 459.333 400 459.333C399.334 459.333 397.734 458.667 396.667 458C395.6 457.333 395.334 456.667 396 456.667C396.8 456.667 398.267 457.333 399.334 458ZM410 458C411.734 459.2 411.734 459.333 410 459.2C408.934 459.067 406.534 458.533 404.667 458L401.334 456.933L404.667 456.8C406.534 456.8 408.934 457.333 410 458ZM393.334 459.333C393.734 460.133 393.2 460.267 392.134 459.867C389.734 458.933 389.334 458 391.2 458C392 458 392.934 458.533 393.334 459.333ZM361.067 468.267C360.133 468.533 358.534 468.533 357.734 468.267C356.8 467.867 357.467 467.6 359.334 467.6C361.2 467.6 361.867 467.867 361.067 468.267ZM262.4 469.6C261.467 469.867 259.867 469.867 259.067 469.6C258.133 469.2 258.8 468.933 260.667 468.933C262.534 468.933 263.2 469.2 262.4 469.6ZM354 470C354 470.667 353.334 471.333 352.534 471.333C351.867 471.333 351.6 470.667 352 470C352.4 469.2 353.067 468.667 353.467 468.667C353.734 468.667 354 469.2 354 470ZM360.667 471.333C359.6 472 358.133 472.667 357.334 472.667C356.667 472.667 356.934 472 358 471.333C359.067 470.667 360.667 470 361.334 470C362.133 470 361.734 470.667 360.667 471.333ZM262.934 482.933C262.667 485.067 262.4 483.333 262.4 479.333C262.4 475.333 262.667 473.6 262.934 475.6C263.2 477.733 263.2 480.933 262.934 482.933ZM320.667 478C320.667 478.667 319.734 479.333 318.534 479.333C317.467 479.333 316.934 478.667 317.333 478C317.734 477.2 318.667 476.667 319.467 476.667C320.133 476.667 320.667 477.2 320.667 478ZM223.6 478.933C222.267 479.467 222.4 480.133 224.267 481.6C226.534 483.333 226.4 483.333 223.733 482.133C219.6 480 218.267 480.4 221.2 482.667C222.667 483.733 223.2 484.667 222.4 484.667C221.6 484.667 220.267 483.867 219.467 482.8C218.133 481.333 218.4 480.533 220.267 479.467C221.6 478.667 223.333 478.133 224 478.133C224.8 478.133 224.534 478.533 223.6 478.933ZM314.667 480.4C314.267 480.8 313.2 480.4 312.267 479.467C311.067 478.133 311.2 478 313.067 478.8C314.4 479.2 315.067 480 314.667 480.4ZM324.267 479.867C321.867 481.733 321.867 481.733 324.267 482.4C325.6 482.8 324.267 482.933 321.334 482.533C317.067 482.133 316.534 482.267 318.667 483.333C320.934 484.4 320.934 484.533 318.934 484.267C315.333 483.867 316.534 481.6 321.2 479.867C326.8 477.733 327.067 477.733 324.267 479.867ZM215.333 482.133C216.933 483.333 216.933 483.467 214.933 482.8C213.6 482.4 211.2 482.667 209.6 483.467C206.8 484.8 206.8 484.8 209.2 482.8C212.267 480.267 212.667 480.267 215.333 482.133ZM313.6 482.8C313.2 483.2 312 483.333 311.067 482.933C310 482.533 310.4 482.133 311.867 482.133C313.333 482 314.133 482.4 313.6 482.8ZM195.867 487.2C197.867 488 198 488.4 196.533 488.933C195.467 489.333 193.867 488.8 192.933 487.867C191.067 485.867 192 485.6 195.867 487.2ZM290.934 486.8C290.534 487.2 289.334 487.333 288.4 486.933C287.334 486.533 287.734 486.133 289.2 486.133C290.667 486 291.467 486.4 290.934 486.8ZM186.933 488.133C186.533 488.533 185.333 488.667 184.4 488.267C183.333 487.867 183.733 487.467 185.2 487.467C186.667 487.333 187.467 487.733 186.933 488.133ZM278 488.667C276.934 489.333 275.067 489.867 274 489.867C272.667 489.867 272.934 489.467 274.667 488.667C278.267 487.067 280.4 487.067 278 488.667ZM179.067 491.733C180.933 491.2 180.933 491.333 179.333 492.4C178.267 493.2 176.933 493.467 176.4 493.2C175.867 492.8 175.333 493.2 175.333 494.133C175.333 495.067 174.933 495.467 174.533 494.933C174 494.533 174.133 493.067 174.667 491.733C175.333 490.267 175.867 489.867 176.267 490.933C176.533 491.867 177.867 492.133 179.067 491.733ZM191.333 490.4C191.333 490.667 190.133 492 188.667 493.333C185.467 496.133 185.067 495.2 188.133 492.133C190.133 490.133 191.333 489.467 191.333 490.4ZM280.267 494.8C279.867 495.2 278.667 495.333 277.734 494.933C276.667 494.533 277.067 494.133 278.534 494.133C280 494 280.8 494.4 280.267 494.8ZM516.267 506.8C515.867 507.2 514.667 507.333 513.734 506.933C512.667 506.533 513.067 506.133 514.534 506.133C516 506 516.8 506.4 516.267 506.8ZM523.334 507.333C523.334 508 522.667 508.667 521.867 508.667C521.2 508.667 520.934 508 521.334 507.333C521.734 506.533 522.4 506 522.8 506C523.067 506 523.334 506.533 523.334 507.333ZM540 508.533C539.6 509.333 538.534 510 537.867 510C537.2 510 537.334 509.2 538.267 508.133C540.134 506 541.467 506.4 540 508.533ZM526.667 511.333C527.067 512 526.534 512.667 525.334 512.667C524.134 512.667 523.6 512 524 511.333C524.4 510.533 525.067 510 525.334 510C525.6 510 526.267 510.533 526.667 511.333ZM502 518C502 518.667 501.334 519.333 500.534 519.333C499.867 519.333 499.6 518.667 500 518C500.4 517.2 501.067 516.667 501.467 516.667C501.734 516.667 502 517.2 502 518ZM479.467 520.4C478.534 520.667 477.067 520.267 476.4 519.6C475.334 518.533 475.867 518.4 478.134 518.933C479.867 519.467 480.534 520 479.467 520.4ZM489.334 519.333C489.734 520 489.467 520.667 488.8 520.667C488 520.667 487.334 520 487.334 519.333C487.334 518.533 487.6 518 487.867 518C488.267 518 488.934 518.533 489.334 519.333ZM478 522.667C482.4 525.2 480.8 525.2 475.2 522.667C472.667 521.6 471.6 520.8 472.667 520.8C473.734 520.8 476.134 521.6 478 522.667ZM475.734 525.6C474.8 525.867 473.2 525.867 472.4 525.6C471.467 525.2 472.134 524.933 474 524.933C475.867 524.933 476.534 525.2 475.734 525.6ZM454.4 530C453.867 530.533 451.867 531.333 450 531.867C446.934 532.533 446.934 532.533 450.4 530.933C452.4 530 453.6 528.667 453.067 528C452.4 527.467 452.8 527.333 453.734 528C454.8 528.533 455.067 529.467 454.4 530ZM438.934 530.8C438.534 531.2 437.333 531.333 436.4 530.933C435.333 530.533 435.734 530.133 437.2 530.133C438.667 530 439.467 530.4 438.934 530.8ZM444.667 531.333C444.667 533.733 439.467 535.6 436.934 534C434.8 532.667 434.934 532.667 437.333 532.8C442 533.067 443.467 532.667 442.667 531.333C442.267 530.533 442.534 530 443.2 530C444 530 444.667 530.533 444.667 531.333ZM436 536.4C435.6 536.8 434.534 536.4 433.6 535.467C432.4 534.133 432.534 534 434.4 534.8C435.734 535.2 436.4 536 436 536.4ZM400.667 542.667C400.534 544.4 394 546.267 394 544.533C394 543.867 395.6 543.2 397.734 543.2L401.334 543.067L397.334 542L393.334 540.8L397.067 541.067C399.067 541.2 400.667 541.867 400.667 542.667ZM182.533 550.267C182.133 550.8 182.8 553.067 184 555.2C185.2 557.733 185.467 559.467 184.667 560C182.4 561.333 180.4 559.2 181.2 556.267C181.6 554.667 181.067 552.4 179.867 551.067C177.867 549.067 178 548.8 180.4 549.067C181.867 549.067 182.8 549.733 182.533 550.267ZM186.4 552.667C186.8 554.133 186.533 555.067 185.867 554.533C185.2 554.133 184.667 552.933 184.667 551.867C184.667 549.2 185.6 549.6 186.4 552.667ZM368 551.333C367.6 552 365.867 552.667 364.267 552.533C361.467 552.533 361.467 552.4 364 551.333C367.734 549.733 368.934 549.733 368 551.333ZM355.734 552.267C354.8 552.533 353.2 552.533 352.4 552.267C351.467 551.867 352.133 551.6 354 551.6C355.867 551.6 356.534 551.867 355.734 552.267ZM356.534 554.8C357.867 556 350.534 555.2 348.667 554C347.2 553.067 348 552.933 351.334 553.467C353.867 554 356.267 554.533 356.534 554.8ZM362 554C363.067 554.667 363.467 555.333 362.667 555.333C362 555.333 360.4 554.667 359.334 554C358.267 553.333 358 552.667 358.667 552.667C359.467 552.667 360.934 553.333 362 554ZM351.734 557.6C350.8 557.867 349.2 557.867 348.4 557.6C347.467 557.2 348.133 556.933 350 556.933C351.867 556.933 352.534 557.2 351.734 557.6ZM328.534 562.4C328.534 563.6 328.267 563.6 327.867 562.4C327.467 561.467 326.133 561.2 324.934 561.6C323.067 562.133 323.067 562 324.667 560.933C326.8 559.333 328.667 560 328.534 562.4ZM336.667 560.8C336.667 561.333 335.467 562 334 562.4C332.4 562.8 331.334 562.4 331.334 561.467C331.334 560.667 332.534 559.867 334 559.867C335.467 559.867 336.667 560.267 336.667 560.8ZM321.334 562C321.734 562.8 321.2 562.933 320.133 562.533C317.734 561.6 317.333 560.667 319.2 560.667C320 560.667 320.934 561.2 321.334 562ZM316.667 564.8C316.667 565.467 315.6 566 314.4 565.867C312.934 565.867 312.667 565.467 313.734 565.067C314.534 564.8 314.934 563.733 314.534 563.067C314 562.133 314.267 562 315.067 562.533C316 563.067 316.667 564 316.667 564.8ZM308 566C307.6 566.667 306.4 567.333 305.6 567.333C304.667 567.333 304.8 566.8 306 566C308.534 564.4 309.067 564.4 308 566ZM311.333 567.333C311.333 568 310.667 568.667 309.867 568.667C309.2 568.667 308.934 568 309.333 567.333C309.734 566.533 310.4 566 310.8 566C311.067 566 311.333 566.533 311.333 567.333ZM194.533 572C194.933 573.067 194.667 574 194 574C193.2 574 192.667 573.067 192.667 572C192.667 570.933 192.933 570 193.2 570C193.467 570 194 570.933 194.533 572ZM205.467 573.333C205.6 574.267 204.4 576.267 202.933 577.6C200.133 580 200.133 579.867 202 577.467C203.067 576 203.733 573.6 203.6 572.133C203.333 570.533 203.6 569.867 204.133 570.4C204.667 570.933 205.333 572.267 205.467 573.333ZM284 571.2C283.6 571.867 284 572.933 284.934 573.467C286 574.133 285.2 574.8 282.667 575.467C280.534 576.133 278 576 276.8 575.2C275.067 574.133 275.2 574 277.6 574.667C279.734 575.2 280.934 574.667 282 572.667C282.8 571.2 283.734 570 284.133 570C284.534 570 284.534 570.533 284 571.2ZM266 572.667C264.267 573.733 264.4 574 266.534 574C268 574 268.8 574.4 268.267 574.8C267.867 575.2 266.267 575.2 264.534 574.667C262.267 573.867 262 573.467 263.467 572.533C264.534 571.867 266 571.333 266.667 571.333C267.467 571.333 267.067 572 266 572.667ZM290.667 573.733C290.267 574.133 289.2 573.733 288.267 572.8C287.067 571.467 287.2 571.333 289.067 572.133C290.4 572.533 291.067 573.333 290.667 573.733ZM201.333 574C201.733 574.8 201.2 574.933 200 574.533C198.533 573.867 198.133 574.267 198.8 576.133C199.467 578.133 199.333 578.267 198.267 576.667C196.8 574.667 197.333 572.667 199.333 572.667C200 572.667 200.933 573.2 201.333 574ZM208.267 577.467C207.867 578 208 579.467 208.8 580.8C209.733 582.8 209.6 583.067 208 582.533C206.933 582.133 206.4 581.067 206.933 580.267C207.467 579.333 206.8 579.2 205.2 579.733C202.8 580.667 202.8 580.667 205.2 578.667C207.867 576.667 209.867 575.867 208.267 577.467ZM268 579.333C264.4 580.933 262.267 580.933 264.667 579.333C265.733 578.667 267.6 578.133 268.667 578.133C270 578.133 269.733 578.533 268 579.333ZM230.667 582C230.267 582.667 229.067 583.333 228.267 583.333C227.333 583.333 227.467 582.8 228.667 582C231.2 580.4 231.733 580.4 230.667 582ZM236.267 582.8C235.867 583.2 234.667 583.333 233.733 582.933C232.667 582.533 233.067 582.133 234.534 582.133C236 582 236.8 582.4 236.267 582.8ZM247.334 582.533C247.334 582.933 246.8 583.6 246 584C245.333 584.4 244.667 584.133 244.667 583.467C244.667 582.667 245.333 582 246 582C246.8 582 247.334 582.267 247.334 582.533ZM254 582.533C254 582.8 253.067 583.467 251.867 583.867C250.8 584.267 250.267 584.133 250.667 583.333C251.467 582 254 581.467 254 582.533ZM235.2 585.467C236.534 586.667 226.534 585.867 224.8 584.8C223.467 584 224.933 583.733 228.8 584.267C232 584.667 234.933 585.2 235.2 585.467ZM242 584.667C243.067 585.333 243.467 586 242.667 586C242 586 240.4 585.333 239.333 584.667C238.267 584 238 583.333 238.667 583.333C239.467 583.333 240.934 584 242 584.667Z" fill="#59046D"/>
<path d="M182 557.333C182 558.4 182.533 559.333 183.333 559.333C184 559.333 184.267 558.4 183.867 557.333C183.333 556.267 182.8 555.333 182.533 555.333C182.267 555.333 182 556.267 182 557.333Z" fill="#59046D"/>
</svg>
